<svg width="54" height="81" viewBox="0 0 54 81" fill="none" xmlns="http://www.w3.org/2000/svg">
<path d="M30.1996 4H22.2996C21.5996 4 21.0996 4.5 21.0996 5.2C21.0996 5.9 21.5996 6.4 22.2996 6.4H30.1996C30.8996 6.4 31.3996 5.9 31.3996 5.2C31.3996 4.5 30.8996 4 30.1996 4Z" fill="#2D3547" stroke="#253246" stroke-miterlimit="10"/>
<path d="M30.1996 72.8008H22.2996C21.5996 72.8008 21.0996 73.3008 21.0996 74.0008C21.0996 74.7008 21.5996 75.2008 22.2996 75.2008H30.1996C30.8996 75.2008 31.3996 74.7008 31.3996 74.0008C31.3996 73.3008 30.8996 72.8008 30.1996 72.8008Z" fill="#2D3547" stroke="#253246" stroke-miterlimit="10"/>
<path d="M48 79.5H5.2C2.9 79.5 1 77.6 1 75.3V5.2C1 2.9 2.9 1 5.2 1H48C50.3 1 52.2 2.9 52.2 5.2V75.4C52.2 77.7 50.3 79.5 48 79.5Z" stroke="#253246" stroke-width="2" stroke-miterlimit="10" stroke-linecap="round" stroke-linejoin="round"/>
<path d="M1.2998 9.5H51.1998" stroke="#253246" stroke-width="2" stroke-miterlimit="10" stroke-linecap="round" stroke-linejoin="round"/>
<path d="M1.2998 69.4004H51.1998" stroke="#253246" stroke-width="2" stroke-miterlimit="10" stroke-linecap="round" stroke-linejoin="round"/>
<path d="M21.0996 5.19922H31.3996" stroke="#253246" stroke-miterlimit="10"/>
<path d="M21.0996 74H31.3996" stroke="#253246" stroke-miterlimit="10"/>
<path d="M35.7996 29.9996C35.7996 25.6996 31.1996 21.0996 26.2996 21.0996C19.9996 21.0996 14.8996 25.9996 15.2996 38.0996C15.4996 42.7996 10.0996 45.0996 10.0996 45.0996V51.8996H42.1996V44.8996C42.1996 44.8996 35.8996 43.6996 36.2996 36.4996" stroke="#06ADEF" stroke-width="4" stroke-miterlimit="10" stroke-linecap="round" stroke-linejoin="round"/>
<path d="M10.2002 45H42.3002" stroke="#06ADEF" stroke-width="4" stroke-miterlimit="10" stroke-linecap="round" stroke-linejoin="round"/>
<path d="M21.0996 52.9004C21.0996 55.7004 23.3996 58.0004 26.5996 57.7004C29.8996 57.4004 30.7996 55.2004 30.7996 52.9004" stroke="#06ADEF" stroke-width="4" stroke-miterlimit="10" stroke-linecap="round" stroke-linejoin="round"/>
<path d="M26.2998 21.9992V16.6992" stroke="#06ADEF" stroke-width="4" stroke-miterlimit="10" stroke-linecap="round" stroke-linejoin="round"/>
</svg>
